PathFileType	4	(X/Y/Z)	 normalP092.trc
DataRate	CameraRate	NumFrames	NumMarkers	Units	OrigDataRate	OrigDataStartFrame	OrigNumFrames
100	100	8	49	M	100	175	204
Frame#	Time	RM1D			RM5D			RM2B			LM1D			LM5D			LM2B			RCAL			LCAL			RLMAL			LLMAL			RSTL			LSTL			RFLE			LFLE			RHFIB			LHFIB			RTTUB			LTTUB			RSSH			LSSH			RTL			LTL			RTAP			RTAD			LTAP			LTAD			RTPP			RTPD			LTPP			LTPD			RPSIS			LPSIS			RASIS			LASIS			T10			T2			IJ			SA			RACR			LACR			RHLE			LHLE			RUSP			LUSP			RCB			LCB			IN			LHME			RHME			
		X1	Y1	Z1	X2	Y2	Z2	X3	Y3	Z3	X4	Y4	Z4	X5	Y5	Z5	X6	Y6	Z6	X7	Y7	Z7	X8	Y8	Z8	X9	Y9	Z9	X10	Y10	Z10	X11	Y11	Z11	X12	Y12	Z12	X13	Y13	Z13	X14	Y14	Z14	X15	Y15	Z15	X16	Y16	Z16	X17	Y17	Z17	X18	Y18	Z18	X19	Y19	Z19	X20	Y20	Z20	X21	Y21	Z21	X22	Y22	Z22	X23	Y23	Z23	X24	Y24	Z24	X25	Y25	Z25	X26	Y26	Z26	X27	Y27	Z27	X28	Y28	Z28	X29	Y29	Z29	X30	Y30	Z30	X31	Y31	Z31	X32	Y32	Z32	X33	Y33	Z33	X34	Y34	Z34	X35	Y35	Z35	X36	Y36	Z36	X37	Y37	Z37	X38	Y38	Z38	X39	Y39	Z39	X40	Y40	Z40	X41	Y41	Z41	X42	Y42	Z42	X43	Y43	Z43	X44	Y44	Z44	X45	Y45	Z45	X46	Y46	Z46	X47	Y47	Z47	X48	Y48	Z48	X49	Y49	Z49	
175	1.7500	0.382692	0.058029	-0.146227	0.345261	0.076984	-0.090569	0.374008	0.096457	-0.111411	0.975038	0.040111	-0.226099	0.940978	0.019718	-0.298500	0.927804	0.047503	-0.258929	0.311805	0.226594	-0.149334	0.778142	0.044328	-0.233102	0.340509	0.195848	-0.096686	0.827422	0.061335	-0.276198	0.332012	0.176635	-0.175122	0.819199	0.038179	-0.203216	0.676419	0.414786	-0.069653	0.845791	0.466230	-0.313958	0.620775	0.386509	-0.062539	0.828044	0.400174	-0.323894	0.652660	0.344698	-0.098622	0.874073	0.399011	-0.266298	0.569569	0.289708	-0.122346	0.866795	0.192586	-0.244886	0.697557	0.613793	-0.041701	0.766170	0.644257	-0.370883	0.802588	0.676471	-0.108677	0.788035	0.577583	-0.100903	0.852350	0.740544	-0.311831	0.867178	0.647583	-0.301310	0.595028	0.630450	-0.114158	0.601345	0.553109	-0.115798	0.670807	0.627159	-0.327789	0.700549	0.560288	-0.312383	0.583949	0.930036	-0.150456	0.582026	0.936509	-0.253576	0.773392	0.879440	-0.087230	0.783984	0.914799	-0.312333	0.586477	1.091190	-0.192523	0.565062	1.309196	-0.182940	0.716390	1.302423	-0.197101	0.742872	1.267163	-0.195337	0.656404	1.322761	-0.015004	0.631660	1.333641	-0.364883	0.691822	1.018394	0.051780	0.547443	1.037349	-0.411166	0.862882	0.860442	0.062324	0.543281	0.819502	-0.504957	0.730517	1.460391	-0.131729	0.717331	1.467834	-0.254887	0.590917	1.385311	-0.183675	0.573173	1.013892	-0.349951	0.675294	0.993174	-0.019362	
176	1.7600	0.410589	0.064495	-0.143023	0.371654	0.084658	-0.088419	0.400091	0.105009	-0.110261	0.975031	0.039983	-0.226025	0.940889	0.019639	-0.298704	0.927772	0.047343	-0.258981	0.337574	0.233911	-0.149086	0.778091	0.044675	-0.233638	0.366622	0.202298	-0.097092	0.827691	0.061345	-0.276243	0.357735	0.184987	-0.174834	0.819089	0.038169	-0.203274	0.706973	0.414151	-0.069498	0.851061	0.465904	-0.315942	0.650167	0.386255	-0.062745	0.831983	0.399848	-0.325237	0.681652	0.345302	-0.099921	0.879678	0.397903	-0.268515	0.593243	0.289265	-0.126988	0.868954	0.192133	-0.245365	0.720338	0.615002	-0.042075	0.777927	0.646187	-0.372197	0.817053	0.678157	-0.109572	0.810521	0.580989	-0.100859	0.862752	0.742673	-0.309551	0.875900	0.646842	-0.301590	0.617367	0.623239	-0.112598	0.626590	0.548464	-0.115108	0.677904	0.630042	-0.327874	0.708678	0.562758	-0.312967	0.597575	0.930480	-0.150236	0.595231	0.938223	-0.253113	0.787127	0.880153	-0.088958	0.797420	0.916785	-0.313984	0.600235	1.093323	-0.193305	0.579275	1.311360	-0.184028	0.730699	1.304053	-0.197512	0.757108	1.268772	-0.195623	0.670157	1.324678	-0.015562	0.646960	1.335323	-0.365809	0.702765	1.019845	0.050135	0.566597	1.037863	-0.413515	0.867783	0.855403	0.062866	0.570362	0.819507	-0.507818	0.744909	1.462577	-0.132488	0.731964	1.469682	-0.255494	0.605283	1.387215	-0.184676	0.591499	1.014715	-0.351863	0.687304	0.995460	-0.021256	
177	1.7700	0.438245	0.069274	-0.141902	0.400254	0.090760	-0.087611	0.428284	0.111387	-0.109906	0.975016	0.039915	-0.225899	0.940838	0.019562	-0.298808	0.927703	0.047193	-0.259027	0.364915	0.238622	-0.151154	0.778077	0.044646	-0.233329	0.394435	0.208322	-0.098238	0.827746	0.061364	-0.276207	0.385606	0.189254	-0.173069	0.819035	0.038125	-0.203270	0.735951	0.415247	-0.069932	0.855827	0.465423	-0.317564	0.679316	0.388071	-0.062875	0.835567	0.399582	-0.326201	0.710902	0.346727	-0.100819	0.884530	0.396943	-0.270404	0.625182	0.292658	-0.126286	0.870572	0.191656	-0.245452	0.741741	0.617185	-0.041822	0.788516	0.648114	-0.373512	0.834919	0.681509	-0.110480	0.832474	0.585136	-0.100702	0.872374	0.742890	-0.307413	0.884795	0.645198	-0.300568	0.640059	0.618737	-0.111875	0.651581	0.547442	-0.115142	0.688888	0.632188	-0.329177	0.716454	0.565370	-0.313998	0.610865	0.931310	-0.150092	0.608102	0.940095	-0.252545	0.800810	0.881224	-0.090472	0.810300	0.918562	-0.315772	0.613789	1.095556	-0.193985	0.593321	1.313636	-0.185036	0.744801	1.305837	-0.197824	0.771130	1.270478	-0.195788	0.683672	1.326536	-0.016032	0.662309	1.337089	-0.366730	0.713487	1.021112	0.048609	0.585692	1.038442	-0.415994	0.872212	0.850516	0.063552	0.598172	0.819827	-0.510833	0.759313	1.465088	-0.133103	0.746617	1.471857	-0.256041	0.619493	1.389452	-0.185506	0.609619	1.015522	-0.353865	0.695693	0.997636	-0.023683	
178	1.7800	0.468385	0.073826	-0.140734	0.430214	0.096189	-0.087239	0.457937	0.116169	-0.110096	0.974948	0.039849	-0.225868	0.940789	0.019542	-0.298888	0.927666	0.047090	-0.259015	0.393491	0.242057	-0.153538	0.778147	0.044796	-0.233193	0.423255	0.213310	-0.099699	0.827694	0.061430	-0.276124	0.413887	0.191500	-0.174857	0.819049	0.038057	-0.203207	0.764651	0.417952	-0.070043	0.861212	0.464895	-0.318444	0.708416	0.391006	-0.063285	0.838874	0.399344	-0.326890	0.740533	0.349095	-0.101479	0.888743	0.396069	-0.271824	0.655938	0.297580	-0.125627	0.871785	0.191174	-0.245725	0.762177	0.619570	-0.041461	0.798499	0.649809	-0.374692	0.853211	0.685983	-0.110896	0.854016	0.590003	-0.100568	0.881522	0.742221	-0.305704	0.893594	0.644041	-0.298747	0.662622	0.617415	-0.112888	0.676854	0.547658	-0.117135	0.697205	0.635507	-0.329803	0.723921	0.567924	-0.314966	0.623964	0.932692	-0.150106	0.620833	0.942012	-0.251886	0.814521	0.882812	-0.091747	0.823040	0.920335	-0.317465	0.627237	1.097877	-0.194664	0.607205	1.316024	-0.185932	0.758718	1.307691	-0.198038	0.784954	1.272252	-0.195847	0.697033	1.328368	-0.016389	0.677600	1.338975	-0.367616	0.723931	1.022205	0.047140	0.604734	1.039166	-0.418588	0.876171	0.845897	0.064333	0.626150	0.820524	-0.513667	0.773613	1.467838	-0.133528	0.761265	1.474204	-0.256568	0.633551	1.391823	-0.186218	0.627549	1.016347	-0.356008	0.706841	0.999617	-0.025353	
179	1.7900	0.500525	0.077489	-0.139587	0.461537	0.100290	-0.086341	0.488963	0.120348	-0.110174	0.974881	0.039765	-0.225818	0.940745	0.019501	-0.298936	0.927587	0.047000	-0.259019	0.422653	0.244470	-0.155268	0.777396	0.044939	-0.234359	0.452898	0.216456	-0.101178	0.827687	0.061514	-0.276015	0.443235	0.193350	-0.176369	0.819074	0.038038	-0.203144	0.793261	0.421723	-0.070099	0.865329	0.464209	-0.319315	0.737469	0.394562	-0.064029	0.840119	0.398749	-0.326798	0.770820	0.351637	-0.102679	0.892506	0.395235	-0.272576	0.685050	0.300983	-0.127678	0.873156	0.190739	-0.245814	0.782391	0.622236	-0.041518	0.807870	0.651007	-0.375282	0.871338	0.691152	-0.111231	0.875300	0.595561	-0.100854	0.890517	0.741456	-0.304263	0.901865	0.643614	-0.296845	0.684542	0.617993	-0.115758	0.702484	0.547604	-0.120417	0.704854	0.637667	-0.332461	0.730741	0.570314	-0.315207	0.636861	0.934690	-0.150206	0.633423	0.943906	-0.251345	0.828186	0.885002	-0.092549	0.835707	0.922059	-0.319095	0.640485	1.100235	-0.195243	0.620947	1.318395	-0.186755	0.772477	1.309605	-0.198214	0.798649	1.274073	-0.195861	0.710153	1.330209	-0.016738	0.692781	1.340965	-0.368397	0.734373	1.023383	0.045918	0.623726	1.040090	-0.421209	0.879648	0.841563	0.065182	0.654452	0.821759	-0.516357	0.787830	1.470527	-0.133857	0.775805	1.476567	-0.257060	0.647551	1.394088	-0.186804	0.646628	1.017501	-0.359517	0.717769	1.001477	-0.026791	
180	1.8000	0.534530	0.080402	-0.139124	0.495164	0.102921	-0.086361	0.521553	0.123603	-0.110732	0.974897	0.039722	-0.225751	0.940717	0.019510	-0.298976	0.927582	0.046907	-0.258984	0.452063	0.245320	-0.156890	0.777526	0.045117	-0.233567	0.483496	0.218170	-0.102732	0.827778	0.061548	-0.275913	0.473843	0.194930	-0.177613	0.819245	0.038008	-0.203079	0.821825	0.426090	-0.070288	0.869301	0.463884	-0.319685	0.766466	0.398896	-0.064930	0.843265	0.398686	-0.326857	0.800545	0.355466	-0.103333	0.895955	0.394508	-0.272442	0.715171	0.304799	-0.129330	0.874503	0.190322	-0.245846	0.800472	0.625341	-0.042082	0.816669	0.651818	-0.374994	0.889398	0.696721	-0.111740	0.896489	0.601573	-0.101660	0.899831	0.740797	-0.303070	0.909610	0.643185	-0.295449	0.705944	0.619474	-0.119722	0.727671	0.547783	-0.123537	0.713536	0.640104	-0.333039	0.737029	0.572592	-0.314778	0.649774	0.937007	-0.150582	0.646012	0.945857	-0.251156	0.841814	0.887710	-0.092928	0.847959	0.923753	-0.320553	0.653671	1.102570	-0.195828	0.634585	1.320752	-0.187554	0.786118	1.311506	-0.198306	0.812199	1.275852	-0.195805	0.723157	1.332065	-0.017080	0.707791	1.343132	-0.369070	0.743639	1.024566	0.043837	0.642617	1.041324	-0.423860	0.882634	0.837636	0.066123	0.684341	0.824054	-0.519239	0.801875	1.473009	-0.134127	0.790226	1.478827	-0.257496	0.661363	1.396469	-0.187278	0.664230	1.018760	-0.361779	0.728467	1.003244	-0.028048	
181	1.8100	0.569891	0.082210	-0.139895	0.530823	0.104390	-0.086951	0.556497	0.125900	-0.111920	0.974898	0.039665	-0.225725	0.940677	0.019478	-0.299011	0.927568	0.046820	-0.258899	0.481767	0.244557	-0.158660	0.777996	0.045608	-0.233436	0.514749	0.218565	-0.104376	0.827891	0.061688	-0.275729	0.505434	0.195339	-0.182013	0.819206	0.038015	-0.202914	0.849861	0.430897	-0.070158	0.870914	0.463169	-0.319469	0.795438	0.403627	-0.065951	0.846849	0.398864	-0.326695	0.830167	0.359703	-0.104220	0.899054	0.394108	-0.271635	0.745539	0.309008	-0.131252	0.875753	0.189940	-0.245844	0.817423	0.627693	-0.042666	0.824105	0.652615	-0.373832	0.907267	0.702275	-0.112286	0.917596	0.607817	-0.102953	0.909682	0.739931	-0.301983	0.917066	0.641817	-0.294841	0.726810	0.621476	-0.123859	0.751843	0.548960	-0.126133	0.721959	0.642555	-0.333233	0.743081	0.574974	-0.314173	0.662674	0.939445	-0.151308	0.658715	0.947875	-0.251359	0.855366	0.890804	-0.093053	0.860412	0.925311	-0.321794	0.666669	1.104914	-0.196503	0.648063	1.323079	-0.188264	0.799650	1.313367	-0.198411	0.825652	1.277669	-0.195635	0.736058	1.333961	-0.017452	0.722577	1.345441	-0.369573	0.754504	1.026551	0.043542	0.661453	1.042881	-0.426538	0.885232	0.834214	0.067068	0.713222	0.826739	-0.521575	0.815792	1.475171	-0.134393	0.804524	1.480855	-0.257842	0.675020	1.398777	-0.187804	0.681682	1.020194	-0.363730	0.738820	1.005121	-0.029045	
182	1.8200	0.606634	0.083183	-0.141033	0.567637	0.104556	-0.087820	0.592102	0.126667	-0.113491	0.974924	0.039633	-0.225635	0.940642	0.019474	-0.299017	0.927540	0.046767	-0.258866	0.512368	0.242073	-0.160084	0.778062	0.045816	-0.233300	0.546813	0.217491	-0.106005	0.827940	0.061754	-0.275615	0.537740	0.193037	-0.181869	0.819332	0.038025	-0.202737	0.877611	0.435878	-0.070768	0.877246	0.463380	-0.319546	0.824180	0.408293	-0.066360	0.850410	0.399057	-0.326405	0.859683	0.364494	-0.105144	0.902029	0.393768	-0.270632	0.778327	0.313054	-0.132298	0.876983	0.189604	-0.245904	0.836465	0.630409	-0.043400	0.832520	0.653496	-0.373669	0.925077	0.708095	-0.112617	0.938507	0.614118	-0.104491	0.919940	0.738749	-0.301273	0.924534	0.639593	-0.294806	0.746945	0.623742	-0.127451	0.775082	0.550998	-0.128555	0.729882	0.645276	-0.332962	0.749322	0.577399	-0.313826	0.675466	0.941924	-0.152139	0.671289	0.949988	-0.251778	0.868855	0.894156	-0.092931	0.872828	0.926877	-0.322708	0.679702	1.107136	-0.197252	0.661439	1.325308	-0.189002	0.813070	1.315203	-0.198455	0.838994	1.279403	-0.195474	0.748851	1.335845	-0.017832	0.737183	1.347881	-0.369982	0.764545	1.028429	0.042712	0.680169	1.044657	-0.429146	0.887454	0.831280	0.068091	0.742825	0.830233	-0.523359	0.829647	1.477026	-0.134624	0.818703	1.482632	-0.258107	0.688530	1.401113	-0.188325	0.698765	1.021900	-0.365400	0.748784	1.007187	-0.029863	
